<svg width="30" height="33" viewBox="0 0 30 33" fill="none" xmlns="http://www.w3.org/2000/svg">
<path d="M15.2312 0.856225C14.992 0.861837 14.7642 0.977301 14.5967 1.17786C14.4291 1.37842 14.3352 1.64811 14.3349 1.92911V22.3383C14.3349 22.6229 14.4311 22.8958 14.6024 23.097C14.7737 23.2982 15.006 23.4112 15.2482 23.4112C15.4904 23.4112 15.7227 23.2982 15.894 23.097C16.0653 22.8958 16.1615 22.6229 16.1615 22.3383V1.92911C16.1616 1.78664 16.1374 1.64559 16.0905 1.5142C16.0436 1.3828 15.9749 1.26369 15.8885 1.16382C15.802 1.06394 15.6994 0.985305 15.5868 0.932494C15.4741 0.879683 15.3536 0.853756 15.2324 0.856225H15.2312ZM29.0601 6.97026C28.9408 6.97402 28.8234 7.00512 28.7142 7.06181L20.8718 11.1746C20.7115 11.2599 20.5755 11.3977 20.4801 11.5715C20.3847 11.7453 20.3339 11.9477 20.3339 12.1545C20.3339 12.3612 20.3847 12.5637 20.4801 12.7374C20.5755 12.9112 20.7115 13.049 20.8718 13.1344L28.7142 17.26C28.9342 17.3681 29.1814 17.3709 29.4031 17.2678C29.6248 17.1647 29.8034 16.9639 29.9007 16.7082C29.998 16.4524 30.0063 16.1622 29.9239 15.8994C29.8414 15.6365 29.6748 15.422 29.4595 15.3016L23.4839 12.1573L29.4595 9.02306C29.6801 8.9064 29.8524 8.69211 29.9391 8.42686C30.0258 8.16161 30.0197 7.86688 29.9223 7.60684C29.8481 7.41267 29.7267 7.24868 29.5732 7.13562C29.4197 7.02256 29.2412 6.96409 29.0601 6.97026ZM0.967498 14.3503C0.826786 14.3478 0.687475 14.3834 0.560382 14.4544C0.43329 14.5254 0.321835 14.6299 0.234672 14.7596C0.147508 14.8894 0.086981 15.0411 0.0577899 15.2028C0.0285988 15.3645 0.0315289 15.532 0.066353 15.6921C2.23275 25.4855 9.77437 32.3276 18.3986 32.3276C18.641 32.3276 18.8734 32.2145 19.0448 32.0132C19.2162 31.8118 19.3125 31.5388 19.3125 31.254C19.3125 30.9693 19.2162 30.6962 19.0448 30.4949C18.8734 30.2935 18.641 30.1804 18.3986 30.1804C14.6114 30.1819 10.9308 28.7075 7.93336 25.9884C4.93592 23.2692 2.79097 19.4589 1.83455 15.1543C1.78436 14.9277 1.67245 14.7266 1.51591 14.5817C1.35936 14.4368 1.16677 14.3546 0.967498 14.3503Z" fill="white"/>
</svg>
