<svg width="33" height="33" viewBox="0 0 33 33" fill="none" xmlns="http://www.w3.org/2000/svg">
<path d="M30.1223 0.712128H2.40165C1.07375 0.712128 0 1.72875 0 2.98567V29.9786C0 31.2355 1.07375 32.2583 2.40165 32.2583H30.1223C31.4502 32.2583 32.5303 31.2355 32.5303 29.9847V2.98567C32.5303 1.72875 31.4502 0.712128 30.1223 0.712128ZM9.65108 27.5941H4.82236V12.5358H9.65108V27.5941ZM7.23672 10.484C5.68645 10.484 4.4348 9.27026 4.4348 7.77305C4.4348 6.27584 5.68645 5.06205 7.23672 5.06205C8.78064 5.06205 10.0323 6.27584 10.0323 7.77305C10.0323 9.26409 8.78064 10.484 7.23672 10.484ZM27.7206 27.5941H22.8983V20.2744C22.8983 18.5308 22.8665 16.2819 20.3886 16.2819C17.879 16.2819 17.4977 18.1857 17.4977 20.1512V27.5941H12.6817V12.5358H17.3071V14.5937H17.3707C18.0124 13.4107 19.5881 12.1599 21.9325 12.1599C26.8184 12.1599 27.7206 15.2776 27.7206 19.3318V27.5941Z" fill="white"/>
</svg>
