<svg width="48" height="48" viewBox="0 0 48 48" fill="none" xmlns="http://www.w3.org/2000/svg">
<circle cx="23.9955" cy="23.9087" r="23.9087" fill="#251C31"/>
<g clip-path="url(#clip0_72_217)">
<path fill-rule="evenodd" clip-rule="evenodd" d="M16.66 21.7353C17.5655 18.1129 19.8299 16.3015 23.4523 16.3015C28.8861 16.3015 29.5653 20.3769 32.2822 21.0561C34.0936 21.509 35.6783 20.8298 37.0367 19.0184C36.1313 22.6408 33.8669 24.4522 30.2445 24.4522C24.8107 24.4522 24.1315 20.3769 21.4146 19.6976C19.6032 19.2447 18.0185 19.9239 16.66 21.7353ZM9.8678 29.886C10.7733 26.2636 13.0377 24.4522 16.66 24.4522C22.0938 24.4522 22.773 28.5275 25.4899 29.2068C27.3013 29.6597 28.8861 28.9805 30.2445 27.1691C29.339 30.7915 27.0747 32.6029 23.4523 32.6029C18.0185 32.6029 17.3393 28.5275 14.6224 27.8483C12.811 27.3954 11.2262 28.0746 9.8678 29.886Z" fill="url(#paint0_linear_72_217)"/>
</g>
<defs>
<linearGradient id="paint0_linear_72_217" x1="9.8678" y1="1.81155" x2="37.0367" y2="47.0928" gradientUnits="userSpaceOnUse">
<stop stop-color="#2383AE"/>
<stop offset="1" stop-color="#6DD7B9"/>
</linearGradient>
<clipPath id="clip0_72_217">
<rect width="27.169" height="27.169" fill="white" transform="translate(9.8678 10.8677)"/>
</clipPath>
</defs>
</svg>
