<svg width="37" height="37" viewBox="0 0 37 37" fill="none" xmlns="http://www.w3.org/2000/svg">
<circle cx="18.2973" cy="18.9487" r="18.0033" fill="#251C31"/>
<g clip-path="url(#clip0_81_485)">
<path fill-rule="evenodd" clip-rule="evenodd" d="M12.7735 17.312C13.4554 14.5843 15.1604 13.2203 17.8881 13.2203C21.9798 13.2203 22.4912 16.2891 24.5371 16.8005C25.9011 17.1416 27.0944 16.6302 28.1173 15.2662C27.4354 17.9938 25.7304 19.3578 23.0027 19.3578C18.911 19.3578 18.3996 16.2891 16.3537 15.7776C14.9897 15.4366 13.7964 15.948 12.7735 17.312ZM7.65894 23.4495C8.34077 20.7218 10.0458 19.3578 12.7735 19.3578C16.8652 19.3578 17.3767 22.4266 19.4225 22.9381C20.7865 23.2791 21.9798 22.7677 23.0027 21.4037C22.3209 24.1313 20.6158 25.4953 17.8881 25.4953C13.7964 25.4953 13.285 22.4266 11.2391 21.9151C9.87515 21.5741 8.68185 22.0855 7.65894 23.4495Z" fill="url(#paint0_linear_81_485)"/>
</g>
<defs>
<linearGradient id="paint0_linear_81_485" x1="7.65894" y1="2.30932" x2="28.1173" y2="36.4064" gradientUnits="userSpaceOnUse">
<stop stop-color="#2383AE"/>
<stop offset="1" stop-color="#6DD7B9"/>
</linearGradient>
<clipPath id="clip0_81_485">
<rect width="20.4583" height="20.4583" fill="white" transform="translate(7.65894 9.12866)"/>
</clipPath>
</defs>
</svg>
