<svg width="37" height="34" viewBox="0 0 37 34" fill="none" xmlns="http://www.w3.org/2000/svg">
<path fill-rule="evenodd" clip-rule="evenodd" d="M18.2811 0C8.20564 0 0.0606079 7.62799 0.0606079 17.0649C0.0606079 24.6083 5.27941 30.9936 12.5193 33.2535C13.4244 33.4234 13.756 32.8864 13.756 32.4346C13.756 32.039 13.7262 30.6829 13.7262 29.27C8.65766 30.2873 7.60219 27.2358 7.60219 27.2358C6.78765 25.258 5.58076 24.7497 5.58076 24.7497C3.92184 23.7043 5.7016 23.7043 5.7016 23.7043C7.54177 23.8174 8.50736 25.456 8.50736 25.456C10.1361 28.0551 12.7606 27.3207 13.8164 26.8686C13.9671 25.7667 14.4501 25.0039 14.9629 24.5802C10.9204 24.1846 6.66719 22.7155 6.66719 16.1606C6.66719 14.2959 7.39072 12.7703 8.5372 11.5838C8.35631 11.1601 7.72266 9.40809 8.71845 7.06318C8.71845 7.06318 10.2569 6.61104 13.7258 8.81484C15.2109 8.4413 16.7426 8.25128 18.2811 8.24967C19.8195 8.24967 21.3878 8.44766 22.836 8.81484C26.3053 6.61104 27.8437 7.06318 27.8437 7.06318C28.8395 9.40809 28.2055 11.1601 28.0246 11.5838C29.2013 12.7703 29.895 14.2959 29.895 16.1606C29.895 22.7155 25.6418 24.1561 21.5691 24.5802C22.233 25.1169 22.8058 26.1339 22.8058 27.7444C22.8058 30.0328 22.776 31.8694 22.776 32.4342C22.776 32.8864 23.1079 33.4234 24.0127 33.2539C31.2526 30.9932 36.4714 24.6083 36.4714 17.0649C36.5012 7.62799 28.3263 0 18.2811 0Z" fill="white"/>
</svg>
