<svg width="34" height="34" viewBox="0 0 34 34" fill="none" xmlns="http://www.w3.org/2000/svg">
<path fill-rule="evenodd" clip-rule="evenodd" d="M33.5076 16.6932C33.5076 25.9126 26.2254 33.3864 17.2424 33.3864C8.25944 33.3864 0.97728 25.9126 0.97728 16.6932C0.97728 7.47379 8.25944 0 17.2424 0C26.2254 0 33.5076 7.47379 33.5076 16.6932ZM17.8253 12.3236C16.2433 12.999 13.0814 14.3968 8.33983 16.517C7.56986 16.8312 7.16652 17.1386 7.1298 17.4392C7.06775 17.9473 7.68762 18.1473 8.53172 18.4197C8.64654 18.4568 8.76551 18.4952 8.88748 18.5358C9.71795 18.8129 10.8351 19.137 11.4158 19.1499C11.9426 19.1616 12.5306 18.9387 13.1797 18.4812C17.61 15.412 19.8969 13.8606 20.0405 13.8272C20.1418 13.8036 20.2821 13.7739 20.3772 13.8607C20.4723 13.9474 20.463 14.1117 20.4529 14.1558C20.3915 14.4245 17.9583 16.7462 16.6991 17.9476C16.3065 18.3222 16.0281 18.5879 15.9711 18.6486C15.8436 18.7845 15.7137 18.9131 15.5888 19.0366C14.8173 19.8 14.2387 20.3724 15.6208 21.3072C16.285 21.7564 16.8165 22.1278 17.3467 22.4984C17.9258 22.9032 18.5034 23.3068 19.2507 23.8096C19.441 23.9377 19.6229 24.0707 19.8 24.2003C20.4739 24.6934 21.0793 25.1363 21.8273 25.0657C22.2619 25.0246 22.7109 24.6052 22.9389 23.3543C23.4777 20.3979 24.5368 13.9923 24.7816 11.3527C24.8031 11.1215 24.7761 10.8255 24.7544 10.6956C24.7328 10.5656 24.6875 10.3805 24.5229 10.2435C24.3281 10.0812 24.0272 10.047 23.8927 10.0494C23.2809 10.0605 22.3423 10.3954 17.8253 12.3236Z" fill="white"/>
</svg>
